# xmcd
#
# Track frame offsets: 
#        150
#        13903
#        33661
#        72610
#        95769
#        110386
#        125304
#        160027
#        180317
#        196357
#        206883
#
# Disc length: 2956 seconds
#
# Revision: 0
# Processed by: cddbd v1.5.2PL0 Copyright (c) Steve Scherf et al.
# Submitted via: ExactAudioCopy v0.99pb4
#
DISCID=9c0b8a0b
DTITLE=Parchman Farm - Last Night... Live at JJ's
DYEAR=1900
DGENRE=Blues
TTITLE0=Never missed a woman
TTITLE1=Tell me baby
TTITLE2=Dog eat dog
TTITLE3=Everybody's talkin
TTITLE4=I aint lying
TTITLE5=I wonder baby
TTITLE6=Last night
TTITLE7=Hoochie coochie girl
TTITLE8=Shake that boogie
TTITLE9=Parchman farm
TTITLE10=So glad to have the blues
EXTD=
EXTT0=
EXTT1=
EXTT2=
EXTT3=
EXTT4=
EXTT5=
EXTT6=
EXTT7=
EXTT8=
EXTT9=
EXTT10=
PLAYORDER=
